<?xml version="1.0" encoding="UTF-8"?>
<svg viewBox="0 0 546.32 525.5" xmlns="http://www.w3.org/2000/svg">
 <g fill-rule="evenodd">
  <path d="m458.07 245.12c32.122-0.896 70.973 26.843 77.228 59.288 10.901 56.534-70.281 95.254-111.34 108.18-67.536 21.254-141.14 15.285-210.9 16.468-31.138 0.52701-74.21-1.474-102.38 14.744-2.4138 1.39-17.987 8.792-11.73 11.815 3.283 1.585 32.074-13.75 37.625-15.275 26.571-7.306 54.094-8.593 81.492-8.352 46.224 0.40799 91.5 1.463 137.38-3.852 62.704-7.264 124.5-22.027 167.48-72.041 19.74-22.97 22.33-53.289 4.1276-78.79-8.2327-11.536-19.851-20.237-32.424-26.185-6.4193-3.035-13.409-5.665-20.337-7.277-2.277-0.53-22.17-2.614-16.919 0.81801 0.23428 0.155 0.47052 0.308 0.70581 0.461" stroke-width="3"/>
  <path d="m230.88 331.35c69.195-1.893 131.09-43.483 155.41-108.96 24.168-65.067 3.562-140.81-50.223-184.68-53.515-43.659-132.14-50.819-191.44-14.012-59.146 36.71-89.985 106.81-76.033 175.21 15.794 77.427 84.447 130.54 162.29 132.45"/>
  <path d="m230.88 323.34c65.323-1.558 125.67-41.305 148.11-103.68 22.497-62.534 3.522-133.58-47.837-175.96-51.041-42.115-125.86-47.748-182.51-13.296-56.471 34.344-85.724 102.13-72.418 166.85 15.197 73.922 80.36 124.08 154.66 126.08" fill="#7f00ff"/>
  <path d="m256 339.19c69.176-2.613 131.07-42.982 155.37-109 24.067-65.375 3.478-140.52-50.222-184.85-53.309-44.019-132.33-50.085-191.41-13.842-59.258 36.351-90.023 107.15-76.068 175.24 15.973 77.943 84.372 129.82 162.33 132.45"/>
  <path d="m256 331.35c65.03-1.681 125.85-41.61 148.11-103.88 22.351-62.524 3.483-133.6-48.041-175.96-51.109-42.014-125.65-47.717-182.34-13.262-56.397 34.276-85.767 102.46-72.417 167.02 15.241 73.727 80.548 124.14 154.69 126.08" fill="#3f007f"/>
  <path d="m404.49 137.05c-7.195 103.6-103.7 177.6-205.8 155.19-11.427-2.507-22.274-6.241-33.143-10.366 42.492 33.405 117.65 40.131 164.51 15.104 50.037-26.723 69.986-84.192 73.511-137.94 0.479-7.332 0.90201-14.654 0.91901-21.992" fill="#ff7300"/>
  <path d="m161.01 259.48c-46.415-74.185-5.585-186.13 70.067-221.98 6.669-3.162 13.722-5.516 20.559-7.638-16.353-2.133-40.875 8.846-54.229 17.388-26.345 16.854-45.761 35.283-58.32 64.573-18.141 42.31-6.667 94.155 13.911 133.48 2.524 4.823 5.097 9.576 8.012 14.182" fill="#fff"/>
  <path d="m282.74 349.38c69.244-2.577 131.01-43.04 155.4-109 24.081-65.107 3.616-140.77-50.222-184.68-53.453-43.601-132.21-50.87-191.45-14.012-59.115 36.785-89.992 106.76-76.032 175.21 15.898 77.94 84.381 129.85 162.3 132.48"/>
  <path d="m282.74 341.54c65.183-2.102 125.65-41.329 148.11-103.88 22.526-62.738 3.356-133.26-48.04-175.75-50.971-42.143-125.71-47.719-182.31-13.297-56.4 34.304-85.713 101.99-72.419 166.65 15.22 74.035 80.353 124.04 154.66 126.28" fill="#7f00ff"/>
  <path d="m307.86 357.19c68.995-2.152 131.2-43.174 155.37-108.79 24.073-65.351 3.525-140.57-50.226-184.85-53.429-44.016-132.37-50.096-191.58-13.841-59.321 36.326-89.956 107.1-76.067 175.2 15.84 77.671 84.623 130.13 162.5 132.28"/>
  <path d="m307.86 349.38c65.3-2.283 125.42-40.984 147.94-103.71 22.456-62.551 3.485-133.58-47.869-175.96-50.983-42.067-125.74-47.732-182.34-13.297-56.5 34.372-85.629 102.12-72.419 166.85 15.183 74.406 80.441 123.44 154.69 126.11" fill="#7f00ff"/>
  <path d="m442.88 158.5c10.544 91.773-84.948 175.62-174.88 155.94-8.925-1.954-17.318-5.318-25.844-8.387 10.974 13.099 36.387 19.53 52.406 22.571 31.587 5.999 63.967 1.279 91.716-15.445 47.486-28.618 61.317-83.202 58.574-135.38-0.33902-6.437-1.105-12.91-1.975-19.296" fill="#3f007f"/>
  <path d="m200.12 273.15c-37.443-77.459 14.659-185.96 93.627-212.26 7.357-2.451 14.817-4.077 22.298-5.559-47.801-6.986-98.323 30.533-121.21 68.784-24.282 40.586-15.069 92.058-0.987 134.21 1.685 5.048 3.839 10.111 6.273 14.831" fill="#fff"/>
  <path d="m101.06 449.09c-31.148-1.972-71.084-0.063019-91.171 26.918-25.707 34.529 57.311 53.777 77.959 42.037 6.401-3.641 18.205-7.977 4.654-5.644-10.292 1.77-17.272 4.624-28.401 3.988-17.759-1.014-46.308-4.533-54.042-23.829-0.142 3.624 0.259-6.024 0.171-5.285 0.907-4.838 2.952-9.475 5.83-13.468-0.906 0.495 6.471-4.029 8.389-5.251-0.136 0.103-0.261 0.216-0.376 0.34198 11.056-10.659 28.016-14.133 42.757-15.443 6.707-0.59601 13.476-0.681 20.218-0.74899 4.75-0.046997 18.36 2.166 14.012-3.616"/>
  <path d="m99.766 511.56c8.756-9.318 15.542-19.32 15.821-32.559 0.136-6.429-1.257-12.376-3.989-18.172-0.718-1.526-9.82-15.553-9.82-8.661 0 3.981 7.447 10.335 8.541 15.105 1.32 5.758 2.019 11.223 0.921 17.098-1.095 5.854-2.279 6.063-6.905 16.006s-27.953 17.199-20.569 18.183"/>
  <path d="m102.23 464.18c14.258-1.209 14.797-17.093 0-17.286-14.958-0.19498-14.546 16.31 0 17.286"/>
 </g>
</svg>
